PathFileType	4	(X/Y/Z)	E:/New_biomech_experiments/MICROGRAVITY MOCAP/Session 2024-06-22/Neeraj_FullAction_pp_22_06_24_t02 (1).trc																																																																											
DataRate	CameraRate	NumFrames	NumMarkers	Units	OrigDataRate	OrigDataStartFrame	OrigNumFrames																																																																							
120	120	7	19	m	120	3790	7579																																																																							
Frame#	Time	RSHO			RBAK			LBHD			RUPA			PRSHO			RELB			CLAV			RFHD			LFHD			C7			RWRB			RFRM			RWRA			MRELB			DIA			STRN			ARSHO			RBHD			T10																						
		X1	Y1	Z1	X2	Y2	Z2	X3	Y3	Z3	X4	Y4	Z4	X5	Y5	Z5	X6	Y6	Z6	X7	Y7	Z7	X8	Y8	Z8	X9	Y9	Z9	X10	Y10	Z10	X11	Y11	Z11	X12	Y12	Z12	X13	Y13	Z13	X14	Y14	Z14	X15	Y15	Z15	X16	Y16	Z16	X17	Y17	Z17	X18	Y18	Z18	X19	Y19	Z19																				y19
																																																																														
3790	31.575	-0.05218	0.08418	0.08993	-0.10392	-0.1283	0.02783	-0.03669	0.2157	-0.11373	-0.0173	0.0822	0.26709	-0.10308	-0.0158	0.08965	-0.01662	0.10383	0.40061	0.10583	-0.00838	-0.05809	0.05575	0.31105	0.03625	0.07514	0.32759	-0.06432	-0.09461	0.0266	-0.06663	-0.00154	0.12194	0.69806	0.00709	0.13219	0.53311	0.09496	0.13677	0.67281	0.0609	0.01292	0.41585	0.08407	-0.31843	0.12925	0.14255	-0.17015	-0.03441	0.06408	0.02972	0.08931	-0.06422	0.21329	-0.01228	-0.10405	-1.56663	-0.04177																				-1.56663
3791	31.583	-0.05211	0.08423	0.08992	-0.10388	-0.12832	0.02784	-0.03673	0.21534	-0.11356	-0.01725	0.08294	0.26762	-0.10303	-0.01581	0.08966	-0.01665	0.10389	0.40062	0.10586	-0.00838	-0.05807	0.05577	0.31102	0.03629	0.07516	0.3276	-0.06427	-0.09457	0.02659	-0.06662	-0.00156	0.12215	0.69803	0.00709	0.13233	0.5331	0.09498	0.13701	0.67278	0.06091	0.01305	0.41582	0.0841	-0.31843	0.12927	0.14258	-0.17017	-0.03439	0.06412	0.02973	0.08933	-0.06421	0.21333	-0.01229	-0.10408	-1.56662	-0.04175																				-1.56662
3792	31.592	-0.05209	0.08423	0.08997	-0.10386	-0.1283	0.02787	-0.03664	0.2157	-0.11368	-0.0173	0.08296	0.26759	-0.10302	-0.01581	0.08968	-0.01665	0.10403	0.40059	0.10589	-0.00837	-0.05807	0.05583	0.31103	0.03634	0.07522	0.3276	-0.06423	-0.09455	0.02659	-0.06659	-0.00151	0.12242	0.69801	0.0071	0.13247	0.53309	0.09498	0.1372	0.67278	0.06088	0.01313	0.41588	0.08414	-0.3184	0.12931	0.14261	-0.17016	-0.03437	0.06418	0.02974	0.08933	-0.06413	0.21334	-0.01222	-0.10408	-1.56659	-0.04173																				-1.56659
3793	31.6	-0.05208	0.08423	0.08997	-0.10384	-0.12833	0.02789	-0.03668	0.21532	-0.11354	-0.0169	0.08227	0.26764	-0.10299	-0.01582	0.08973	-0.01661	0.10411	0.40057	0.1059	-0.00838	-0.05805	0.05589	0.31105	0.03642	0.07504	0.32758	-0.06442	-0.09454	0.02658	-0.06657	-0.00152	0.12269	0.69799	0.0071	0.13265	0.53306	0.09495	0.13739	0.67276	0.06092	0.01324	0.41587	0.08414	-0.31842	0.12928	0.14263	-0.17015	-0.03432	0.06418	0.02973	0.08932	-0.06413	0.21331	-0.01218	-0.10406	-1.56657	-0.04172																				-1.56657
3794	31.608	-0.05205	0.0842	0.09	-0.10379	-0.12834	0.02789	-0.03656	0.21572	-0.11363	-0.01722	0.08305	0.26758	-0.10296	-0.01583	0.08975	-0.01658	0.10424	0.40054	0.10593	-0.00837	-0.05807	0.05591	0.31103	0.03644	0.07531	0.3276	-0.06414	-0.09451	0.02658	-0.06654	-0.00158	0.12292	0.69794	0.00712	0.13281	0.533	0.09499	0.13758	0.67271	0.06087	0.01333	0.4159	0.08414	-0.31844	0.12932	0.14264	-0.17016	-0.03433	0.06421	0.02974	0.08933	-0.06411	0.21337	-0.01216	-0.10402	-1.56654	-0.0417																				-1.56654
3795	31.617	-0.05204	0.08419	0.09	-0.10379	-0.1283	0.02793	-0.0365	0.21569	-0.11356	-0.01699	0.08274	0.2673	-0.10296	-0.01583	0.08975	-0.0166	0.10435	0.40049	0.10593	-0.00837	-0.05803	0.0559	0.31099	0.03647	0.07533	0.32759	-0.06411	-0.09448	0.02657	-0.06652	-0.00151	0.12315	0.69795	0.00718	0.13299	0.53299	0.09507	0.1378	0.67265	0.06087	0.01345	0.4159	0.08416	-0.31843	0.12931	0.14266	-0.17015	-0.03432	0.06425	0.02975	0.08937	-0.06407	0.21328	-0.01216	-0.10399	-1.56652	-0.04167																				-1.56652
3796	31.625	-0.05205	0.08417	0.08999	-0.10378	-0.12831	0.02796	-0.03649	0.21572	-0.11356	-0.01698	0.08279	0.2673	-0.10294	-0.01583	0.08978	-0.01654	0.10444	0.40048	0.10597	-0.00839	-0.058	0.05594	0.31097	0.0365	0.07538	0.3276	-0.06407	-0.09446	0.02657	-0.0665	-0.00147	0.12338	0.6979	0.00721	0.13313	0.53296	0.09471	0.13792	0.67234	0.06087	0.01354	0.41595	0.08415	-0.31847	0.12932	0.14269	-0.17017	-0.03429	0.06424	0.02973	0.0894	-0.06405	0.21336	-0.01213	-0.10398	-1.5665	-0.04164																				-1.5665
